<svg width="289" height="47" viewBox="0 0 289 47" fill="none" xmlns="http://www.w3.org/2000/svg">
<path d="M0 14.3333C0 13.7178 0.339247 13.1524 0.882353 12.8627L24.2157 0.418301C24.7059 0.156863 25.2941 0.156863 25.7843 0.418301L47.2426 11.8627C48.4191 12.4902 48.4191 14.1765 47.2426 14.8039L25 26.6667L5.30025 16.1601C5.0227 16.0121 4.6875 16.2132 4.6875 16.5278L4.6875 20.3333C4.6875 20.6411 4.85712 20.9238 5.12868 21.0686L25 31.6667L45.3125 20.8333L47.2426 21.8627C48.4191 22.4902 48.4191 24.1765 47.2426 24.8039L25 36.6667L5.30025 26.1601C5.0227 26.0121 4.6875 26.2132 4.6875 26.5278L4.6875 30.3333C4.6875 30.6411 4.85712 30.9238 5.12868 31.0686L25 41.6667L45.3125 30.8333L47.2426 31.8627C48.4191 32.4902 48.4191 34.1765 47.2426 34.8039L25.7843 46.2484C25.2941 46.5098 24.7059 46.5098 24.2157 46.2484L0.882353 33.8039C0.339247 33.5143 0 32.9489 0 32.3333V14.3333Z" fill="url(#paint0_linear_8_10229)"/>
<path d="M65.392 34.3333V15.2293H58.864V11.9333H76.048V15.2293H69.488V34.3333H65.392ZM81.0995 34.7173C79.7342 34.7173 78.6142 34.504 77.7395 34.0773C76.8648 33.6293 76.2142 33.0427 75.7875 32.3173C75.3608 31.592 75.1475 30.792 75.1475 29.9173C75.1475 28.4453 75.7235 27.2507 76.8755 26.3333C78.0275 25.416 79.7555 24.9573 82.0595 24.9573H86.0915V24.5733C86.0915 23.4853 85.7822 22.6853 85.1635 22.1733C84.5448 21.6613 83.7768 21.4053 82.8595 21.4053C82.0275 21.4053 81.3022 21.608 80.6835 22.0133C80.0648 22.3973 79.6808 22.9733 79.5315 23.7413H75.5315C75.6382 22.5893 76.0222 21.5867 76.6835 20.7333C77.3662 19.88 78.2408 19.2293 79.3075 18.7813C80.3742 18.312 81.5688 18.0773 82.8915 18.0773C85.1528 18.0773 86.9342 18.6427 88.2355 19.7733C89.5368 20.904 90.1875 22.504 90.1875 24.5733V34.3333H86.6995L86.3155 31.7733C85.8462 32.6267 85.1848 33.3307 84.3315 33.8853C83.4995 34.44 82.4222 34.7173 81.0995 34.7173ZM82.0275 31.5173C83.2008 31.5173 84.1075 31.1333 84.7475 30.3653C85.4088 29.5973 85.8248 28.648 85.9955 27.5173H82.5075C81.4195 27.5173 80.6408 27.72 80.1715 28.1253C79.7022 28.5093 79.4675 28.9893 79.4675 29.5653C79.4675 30.184 79.7022 30.664 80.1715 31.0053C80.6408 31.3467 81.2595 31.5173 82.0275 31.5173ZM100.016 34.7173C98.6083 34.7173 97.3709 34.4933 96.3043 34.0453C95.2376 33.576 94.3843 32.936 93.7443 32.1253C93.1043 31.3147 92.7203 30.376 92.5923 29.3093H96.7203C96.8483 29.928 97.1896 30.4613 97.7443 30.9093C98.3203 31.336 99.0563 31.5493 99.9523 31.5493C100.848 31.5493 101.499 31.368 101.904 31.0053C102.331 30.6427 102.544 30.2267 102.544 29.7573C102.544 29.0747 102.246 28.616 101.648 28.3813C101.051 28.1253 100.219 27.88 99.1523 27.6453C98.4696 27.496 97.7763 27.3147 97.0723 27.1013C96.3683 26.888 95.7176 26.6213 95.1203 26.3013C94.5443 25.96 94.0749 25.5333 93.7123 25.0213C93.3496 24.488 93.1683 23.8373 93.1683 23.0693C93.1683 21.6613 93.7229 20.4773 94.8323 19.5173C95.9629 18.5573 97.5416 18.0773 99.5683 18.0773C101.446 18.0773 102.939 18.5147 104.048 19.3893C105.179 20.264 105.851 21.4693 106.064 23.0053H102.192C101.958 21.832 101.072 21.2453 99.5363 21.2453C98.7683 21.2453 98.1709 21.3947 97.7443 21.6933C97.3389 21.992 97.1363 22.3653 97.1363 22.8133C97.1363 23.2827 97.4456 23.656 98.0643 23.9333C98.6829 24.2107 99.5043 24.4667 100.528 24.7013C101.638 24.9573 102.651 25.2453 103.568 25.5653C104.507 25.864 105.254 26.3227 105.808 26.9413C106.363 27.5387 106.64 28.4027 106.64 29.5333C106.662 30.5147 106.406 31.4 105.872 32.1893C105.339 32.9787 104.571 33.5973 103.568 34.0453C102.566 34.4933 101.382 34.7173 100.016 34.7173ZM117.341 34.7173C115.741 34.7173 114.322 34.376 113.085 33.6933C111.847 33.0107 110.877 32.0507 110.173 30.8133C109.469 29.576 109.117 28.1467 109.117 26.5253C109.117 24.8827 109.458 23.4213 110.141 22.1413C110.845 20.8613 111.805 19.8693 113.021 19.1653C114.258 18.44 115.709 18.0773 117.373 18.0773C118.93 18.0773 120.306 18.4187 121.501 19.1013C122.695 19.784 123.623 20.7227 124.285 21.9173C124.967 23.0907 125.309 24.4027 125.309 25.8533C125.309 26.088 125.298 26.3333 125.277 26.5893C125.277 26.8453 125.266 27.112 125.245 27.3893H113.181C113.266 28.6267 113.693 29.5973 114.461 30.3013C115.25 31.0053 116.199 31.3573 117.309 31.3573C118.141 31.3573 118.834 31.176 119.389 30.8133C119.965 30.4293 120.391 29.9387 120.669 29.3413H124.829C124.53 30.344 124.029 31.2613 123.325 32.0933C122.642 32.904 121.789 33.544 120.765 34.0133C119.762 34.4827 118.621 34.7173 117.341 34.7173ZM117.373 21.4053C116.37 21.4053 115.485 21.6933 114.717 22.2693C113.949 22.824 113.458 23.6773 113.245 24.8293H121.149C121.085 23.784 120.701 22.952 119.997 22.3333C119.293 21.7147 118.418 21.4053 117.373 21.4053ZM135.41 34.7173C133.916 34.7173 132.583 34.3547 131.41 33.6293C130.236 32.904 129.308 31.912 128.626 30.6533C127.943 29.3947 127.602 27.9653 127.602 26.3653C127.602 24.7653 127.943 23.3467 128.626 22.1093C129.308 20.8507 130.236 19.8693 131.41 19.1653C132.583 18.44 133.916 18.0773 135.41 18.0773C136.604 18.0773 137.65 18.3013 138.546 18.7493C139.442 19.1973 140.167 19.8267 140.722 20.6373V11.2933H144.818V34.3333H141.17L140.722 32.0613C140.21 32.7653 139.527 33.384 138.674 33.9173C137.842 34.4507 136.754 34.7173 135.41 34.7173ZM136.274 31.1333C137.596 31.1333 138.674 30.696 139.506 29.8213C140.359 28.9253 140.786 27.784 140.786 26.3973C140.786 25.0107 140.359 23.88 139.506 23.0053C138.674 22.1093 137.596 21.6613 136.274 21.6613C134.972 21.6613 133.895 22.0987 133.042 22.9733C132.188 23.848 131.762 24.9787 131.762 26.3653C131.762 27.752 132.188 28.8933 133.042 29.7893C133.895 30.6853 134.972 31.1333 136.274 31.1333ZM148.349 34.3333V11.2933H152.445V34.3333H148.349ZM158.198 15.9973C157.451 15.9973 156.833 15.7733 156.342 15.3253C155.873 14.8773 155.638 14.312 155.638 13.6293C155.638 12.9467 155.873 12.392 156.342 11.9653C156.833 11.5173 157.451 11.2933 158.198 11.2933C158.945 11.2933 159.553 11.5173 160.022 11.9653C160.513 12.392 160.758 12.9467 160.758 13.6293C160.758 14.312 160.513 14.8773 160.022 15.3253C159.553 15.7733 158.945 15.9973 158.198 15.9973ZM156.15 34.3333V18.4613H160.246V34.3333H156.15ZM170.441 34.7173C169.033 34.7173 167.796 34.4933 166.729 34.0453C165.663 33.576 164.809 32.936 164.169 32.1253C163.529 31.3147 163.145 30.376 163.017 29.3093H167.145C167.273 29.928 167.615 30.4613 168.169 30.9093C168.745 31.336 169.481 31.5493 170.377 31.5493C171.273 31.5493 171.924 31.368 172.329 31.0053C172.756 30.6427 172.969 30.2267 172.969 29.7573C172.969 29.0747 172.671 28.616 172.073 28.3813C171.476 28.1253 170.644 27.88 169.577 27.6453C168.895 27.496 168.201 27.3147 167.497 27.1013C166.793 26.888 166.143 26.6213 165.545 26.3013C164.969 25.96 164.5 25.5333 164.137 25.0213C163.775 24.488 163.593 23.8373 163.593 23.0693C163.593 21.6613 164.148 20.4773 165.257 19.5173C166.388 18.5573 167.967 18.0773 169.993 18.0773C171.871 18.0773 173.364 18.5147 174.473 19.3893C175.604 20.264 176.276 21.4693 176.489 23.0053H172.617C172.383 21.832 171.497 21.2453 169.961 21.2453C169.193 21.2453 168.596 21.3947 168.169 21.6933C167.764 21.992 167.561 22.3653 167.561 22.8133C167.561 23.2827 167.871 23.656 168.489 23.9333C169.108 24.2107 169.929 24.4667 170.953 24.7013C172.063 24.9573 173.076 25.2453 173.993 25.5653C174.932 25.864 175.679 26.3227 176.233 26.9413C176.788 27.5387 177.065 28.4027 177.065 29.5333C177.087 30.5147 176.831 31.4 176.297 32.1893C175.764 32.9787 174.996 33.5973 173.993 34.0453C172.991 34.4933 171.807 34.7173 170.441 34.7173ZM186.626 34.3333C184.962 34.3333 183.628 33.928 182.626 33.1173C181.623 32.3067 181.122 30.8667 181.122 28.7973V21.8853H178.402V18.4613H181.122L181.602 14.2053H185.218V18.4613H189.506V21.8853H185.218V28.8293C185.218 29.5973 185.378 30.1307 185.698 30.4293C186.039 30.7067 186.615 30.8453 187.426 30.8453H189.41V34.3333H186.626ZM199.368 34.3333V18.4613H202.984L203.304 21.1493C203.794 20.2107 204.498 19.464 205.416 18.9093C206.354 18.3547 207.453 18.0773 208.712 18.0773C210.674 18.0773 212.2 18.696 213.288 19.9333C214.376 21.1707 214.92 22.984 214.92 25.3733V34.3333H210.824V25.7573C210.824 24.392 210.546 23.3467 209.992 22.6213C209.437 21.896 208.573 21.5333 207.4 21.5333C206.248 21.5333 205.298 21.9387 204.552 22.7493C203.826 23.56 203.464 24.6907 203.464 26.1413V34.3333H199.368ZM223.837 34.3333L232.029 11.9333H236.637L244.829 34.3333H240.477L238.685 29.1493H229.949L228.125 34.3333H223.837ZM231.069 25.9493H237.565L234.301 16.6373L231.069 25.9493ZM246.979 34.3333V18.4613H250.627L251.011 21.4373C251.587 20.4133 252.365 19.6027 253.347 19.0053C254.349 18.3867 255.523 18.0773 256.867 18.0773V22.3973H255.715C254.819 22.3973 254.019 22.536 253.315 22.8133C252.611 23.0907 252.056 23.5707 251.651 24.2533C251.267 24.936 251.075 25.8853 251.075 27.1013V34.3333H246.979ZM259.026 34.3333V18.4613H262.674L263.058 21.4373C263.634 20.4133 264.413 19.6027 265.394 19.0053C266.397 18.3867 267.57 18.0773 268.914 18.0773V22.3973H267.762C266.866 22.3973 266.066 22.536 265.362 22.8133C264.658 23.0907 264.104 23.5707 263.698 24.2533C263.314 24.936 263.122 25.8853 263.122 27.1013V34.3333H259.026ZM273.282 15.9973C272.535 15.9973 271.916 15.7733 271.426 15.3253C270.956 14.8773 270.722 14.312 270.722 13.6293C270.722 12.9467 270.956 12.392 271.426 11.9653C271.916 11.5173 272.535 11.2933 273.282 11.2933C274.028 11.2933 274.636 11.5173 275.106 11.9653C275.596 12.392 275.842 12.9467 275.842 13.6293C275.842 14.312 275.596 14.8773 275.106 15.3253C274.636 15.7733 274.028 15.9973 273.282 15.9973ZM271.234 34.3333V18.4613H275.33V34.3333H271.234ZM279.701 34.3333V21.8853H277.525V18.4613H279.701V16.6053C279.701 14.6853 280.181 13.32 281.141 12.5093C282.122 11.6987 283.445 11.2933 285.109 11.2933H286.869V14.7813H285.749C285.045 14.7813 284.544 14.92 284.245 15.1973C283.946 15.4747 283.797 15.944 283.797 16.6053V18.4613H287.221V21.8853H283.797V34.3333H279.701Z" fill="#0F172A"/>
<defs>
<linearGradient id="paint0_linear_8_10229" x1="25" y1="0" x2="6.66667" y2="46.6667" gradientUnits="userSpaceOnUse">
<stop stop-color="#EF4444"/>
<stop offset="1" stop-color="#EB9478"/>
</linearGradient>
</defs>
</svg>
